<svg width="3970" height="1807" viewBox="0 0 3970 1807" fill="none" xmlns="http://www.w3.org/2000/svg">
<path d="M336.96 870.72C246.72 870.72 171.84 841.92 116.16 785.28C59.52 728.64 30.72 655.68 30.72 566.4V486.72C30.72 397.44 59.52 323.52 115.2 266.88C171.84 210.24 246.72 182.4 336.96 182.4C419.52 182.4 488.64 200.64 541.44 238.08C597.12 276.48 599.04 315.84 591.36 341.76C581.76 373.44 552 393.6 518.4 393.6C495.36 393.6 471.36 384.96 446.4 366.72C421.44 349.44 384.96 339.84 336.96 339.84C291.84 339.84 257.28 353.28 232.32 379.2C206.4 405.12 193.92 439.68 193.92 485.76V566.4C193.92 612.48 206.4 648 231.36 673.92C257.28 699.84 291.84 712.32 336.96 712.32C384.96 712.32 422.4 703.68 447.36 686.4C472.32 669.12 497.28 660.48 519.36 660.48C552.96 660.48 581.76 680.64 591.36 711.36C595.2 723.84 600.96 754.56 573.12 787.2C565.44 795.84 554.88 805.44 541.44 815.04C487.68 851.52 419.52 870.72 336.96 870.72ZM750.938 265.92C807.578 211.2 884.377 183.36 980.378 183.36C1075.42 183.36 1152.22 211.2 1208.86 265.92C1267.42 321.6 1296.22 396.48 1296.22 487.68V567.36C1296.22 658.56 1267.42 733.44 1209.82 789.12C1153.18 843.84 1076.38 871.68 981.338 871.68C886.298 871.68 808.538 843.84 751.898 789.12C694.297 733.44 664.538 658.56 664.538 567.36V487.68C664.538 396.48 693.338 321.6 750.938 265.92ZM1133.98 567.36V486.72C1133.98 439.68 1121.5 404.16 1096.54 379.2C1070.62 353.28 1033.18 340.8 980.378 340.8C927.578 340.8 890.138 353.28 865.178 379.2C840.218 404.16 827.738 439.68 827.738 486.72V567.36C827.738 614.4 840.218 649.92 865.178 675.84C890.138 700.8 928.538 713.28 981.338 713.28C1033.18 713.28 1071.58 700.8 1096.54 675.84C1121.5 650.88 1133.98 615.36 1133.98 567.36ZM1458.02 810.24C1399.46 766.08 1368.74 700.8 1368.74 621.12V259.2C1368.74 220.8 1399.46 190.08 1437.86 190.08H1461.86C1500.26 190.08 1531.94 220.8 1531.94 259.2V621.12C1531.94 649.92 1539.62 669.12 1559.78 684.48C1584.74 702.72 1618.34 712.32 1661.54 712.32C1704.74 712.32 1738.34 702.72 1763.3 684.48C1783.46 669.12 1792.1 649.92 1792.1 621.12V259.2C1792.1 220.8 1822.81 190.08 1861.22 190.08H1885.22C1923.62 190.08 1954.34 220.8 1954.34 259.2V621.12C1954.34 701.76 1923.62 767.04 1865.06 810.24C1811.3 850.56 1743.14 870.72 1661.54 870.72C1579.94 870.72 1511.78 850.56 1458.02 810.24ZM2078.51 246.72C2078.51 209.28 2109.23 177.6 2147.63 177.6H2355.95C2439.47 177.6 2503.79 193.92 2553.71 225.6C2610.35 263.04 2640.11 319.68 2640.11 390.72C2640.11 435.84 2622.83 479.04 2591.15 514.56V515.52C2622.83 549.12 2640.11 594.24 2640.11 645.12V782.4C2640.11 827.52 2604.59 864 2558.51 864C2513.39 864 2477.87 827.52 2477.87 781.44V646.08C2477.87 632.64 2474.03 625.92 2462.51 619.2C2450.03 610.56 2423.15 600 2371.31 600H2241.71V782.4C2241.71 819.84 2210.03 851.52 2171.63 851.52H2147.63C2109.23 851.52 2078.51 819.84 2078.51 782.4V246.72ZM2241.71 441.6H2352.11C2419.31 441.6 2448.11 428.16 2458.67 420.48C2477.87 407.04 2477.87 396.48 2477.87 390.72C2477.87 371.52 2471.15 363.84 2460.59 356.16C2449.07 348.48 2420.27 336 2355.95 336H2241.71V441.6ZM2806.09 226.56C2857.94 196.8 2922.26 182.4 2997.14 182.4C3075.86 182.4 3142.1 200.64 3193.94 239.04C3208.33 248.64 3218.9 258.24 3226.58 268.8C3250.58 299.52 3245.78 328.32 3241.94 342.72C3231.38 373.44 3203.54 393.6 3168.98 393.6C3145.94 393.6 3121.94 384.96 3096.02 366.72C3072.98 349.44 3039.38 339.84 2997.14 339.84C2952.02 339.84 2916.5 347.52 2893.46 361.92C2883.86 367.68 2874.26 376.32 2874.26 381.12C2874.26 384.96 2874.26 390.72 2887.7 400.32C2899.22 408.96 2930.9 425.28 3017.3 443.52C3097.94 460.8 3159.38 481.92 3203.54 509.76C3261.14 545.28 3291.86 599.04 3291.86 665.28C3291.86 712.32 3274.58 778.56 3193.94 824.64C3141.14 855.36 3075.86 870.72 3000.98 870.72C2924.18 870.72 2856.02 855.36 2798.42 824.64C2784.02 816.96 2772.5 809.28 2762.9 800.64C2730.26 770.88 2734.1 737.28 2736.98 723.84C2744.66 696 2769.62 668.16 2811.86 668.16C2832.02 668.16 2855.06 673.92 2880.02 686.4C2913.62 703.68 2954.9 712.32 3000.98 712.32C3045.14 712.32 3081.62 704.64 3107.54 689.28C3128.66 676.8 3128.66 669.12 3128.66 665.28C3128.66 657.6 3127.7 651.84 3114.26 642.24C3101.78 634.56 3067.22 617.28 2980.82 597.12C2898.26 579.84 2837.78 558.72 2796.5 532.8C2741.78 500.16 2711.05 446.4 2711.05 382.08C2711.05 336.96 2727.38 272.64 2806.09 226.56ZM3457.34 864C3418.94 864 3388.22 833.28 3388.22 794.88V260.16C3388.22 221.76 3418.94 191.04 3457.34 191.04H3855.74C3894.14 191.04 3924.86 221.76 3924.86 260.16V279.36C3924.86 317.76 3894.14 348.48 3855.74 348.48H3551.42V436.8H3809.66C3848.06 436.8 3878.78 467.52 3878.78 505.92V526.08C3878.78 564.48 3848.06 595.2 3809.66 595.2H3551.42V705.6H3855.74C3894.14 705.6 3924.86 736.32 3924.86 774.72V794.88C3924.86 833.28 3894.14 864 3855.74 864H3457.34Z" fill="#00789B"/>
<path d="M276.391 1574.51C202.372 1574.51 140.951 1550.89 95.28 1504.43C48.8212 1457.97 25.198 1398.13 25.198 1324.89V1259.54C25.198 1186.31 48.8212 1125.67 94.4926 1079.21C140.951 1032.75 202.372 1009.92 276.391 1009.92C344.11 1009.92 400.806 1024.88 444.115 1055.59C489.786 1087.09 491.361 1119.37 485.062 1140.63C477.187 1166.62 452.777 1183.16 425.217 1183.16C406.318 1183.16 386.632 1176.07 366.159 1161.11C345.685 1146.93 315.763 1139.06 276.391 1139.06C239.381 1139.06 211.033 1150.08 190.56 1171.34C169.299 1192.6 159.062 1220.95 159.062 1258.75V1324.89C159.062 1362.69 169.299 1391.83 189.773 1413.09C211.033 1434.35 239.381 1444.58 276.391 1444.58C315.763 1444.58 346.473 1437.5 366.946 1423.32C387.42 1409.15 407.893 1402.06 426.004 1402.06C453.564 1402.06 477.187 1418.6 485.062 1443.8C488.212 1454.03 492.936 1479.23 470.101 1506C463.801 1513.09 455.139 1520.97 444.115 1528.84C400.019 1558.76 344.11 1574.51 276.391 1574.51ZM615.168 1078.43C661.626 1033.54 724.621 1010.71 803.365 1010.71C881.322 1010.71 944.317 1033.54 990.775 1078.43C1038.81 1124.1 1062.43 1185.52 1062.43 1260.32V1325.68C1062.43 1400.49 1038.81 1461.91 991.563 1507.58C945.104 1552.46 882.109 1575.3 804.153 1575.3C726.196 1575.3 662.414 1552.46 615.955 1507.58C568.709 1461.91 544.298 1400.49 544.298 1325.68V1260.32C544.298 1185.52 567.921 1124.1 615.168 1078.43ZM929.355 1325.68V1259.54C929.355 1220.95 919.119 1191.82 898.645 1171.34C877.384 1150.08 846.674 1139.85 803.365 1139.85C760.056 1139.85 729.346 1150.08 708.873 1171.34C688.399 1191.82 678.163 1220.95 678.163 1259.54V1325.68C678.163 1364.27 688.399 1393.4 708.873 1414.66C729.346 1435.14 760.844 1445.37 804.153 1445.37C846.674 1445.37 878.172 1435.14 898.645 1414.66C919.119 1394.19 929.355 1365.05 929.355 1325.68ZM1207.15 1569C1175.66 1569 1150.46 1543.8 1150.46 1512.3V1073.7C1150.46 1042.2 1175.66 1017.01 1207.15 1017.01H1235.5C1256.76 1017.01 1275.66 1028.03 1285.9 1046.93L1456.77 1367.42L1627.65 1046.93C1637.88 1028.03 1656.78 1017.01 1678.04 1017.01H1707.18C1738.68 1017.01 1763.87 1042.2 1763.87 1073.7V1512.3C1763.87 1543.8 1738.68 1569 1707.18 1569H1687.49C1655.99 1569 1630.8 1543.8 1630.8 1512.3V1323.32L1514.26 1539.08C1504.81 1557.19 1485.91 1569 1464.65 1569H1448.9C1427.64 1569 1408.74 1557.19 1398.5 1539.08L1284.32 1325.68V1512.3C1284.32 1543.8 1258.34 1569 1226.84 1569H1207.15ZM1926.15 1017.01H2093.88C2162.38 1017.01 2216.72 1031.97 2256.88 1062.68C2300.97 1095.75 2323.81 1143 2323.81 1198.9C2323.81 1254.02 2300.97 1301.27 2256.88 1335.13C2216.72 1365.05 2162.38 1380.8 2093.88 1380.8H2003.32V1512.3C2003.32 1543.8 1977.34 1569 1945.84 1569H1926.15C1894.66 1569 1869.46 1543.8 1869.46 1512.3V1073.7C1869.46 1042.2 1894.66 1017.01 1926.15 1017.01ZM2003.32 1146.15V1250.88H2093.88C2130.89 1250.88 2158.45 1244.58 2173.41 1231.98C2188.37 1220.16 2190.73 1209.14 2190.73 1198.9C2190.73 1184.73 2186.01 1174.49 2173.41 1165.04C2163.17 1156.38 2141.12 1146.15 2093.88 1146.15H2003.32ZM2684.31 1050.08L2884.32 1486.32C2888.26 1494.19 2890.62 1502.86 2890.62 1512.3C2890.62 1543.8 2865.42 1569 2833.92 1569H2811.87C2789.83 1569 2769.35 1556.4 2760.69 1535.93L2715.81 1438.29H2526.03L2481.15 1535.93C2472.49 1555.61 2452.01 1569 2429.97 1569H2407.92C2389.02 1569 2370.91 1559.55 2359.88 1543.01C2349.65 1526.48 2348.07 1506 2356.73 1488.68L2556.74 1050.08C2566.19 1029.6 2586.67 1017.01 2608.71 1017.01H2633.13C2655.17 1017.01 2675.65 1029.6 2684.31 1050.08ZM2585.09 1308.36H2656.75L2620.53 1229.61L2585.09 1308.36ZM3010.68 1046.14C3053.2 1021.73 3105.96 1009.92 3167.38 1009.92C3231.95 1009.92 3286.28 1024.88 3328.8 1056.38C3340.61 1064.25 3349.28 1072.13 3355.57 1080.79C3375.26 1105.99 3371.32 1129.61 3368.17 1141.42C3359.51 1166.62 3336.68 1183.16 3308.33 1183.16C3289.43 1183.16 3269.74 1176.07 3248.48 1161.11C3229.58 1146.93 3202.02 1139.06 3167.38 1139.06C3130.37 1139.06 3101.23 1145.36 3082.33 1157.17C3074.46 1161.89 3066.59 1168.98 3066.59 1172.92C3066.59 1176.07 3066.59 1180.79 3077.61 1188.67C3087.06 1195.75 3113.04 1209.14 3183.91 1224.1C3250.06 1238.28 3300.45 1255.6 3336.68 1278.44C3383.92 1307.57 3409.12 1351.67 3409.12 1406C3409.12 1444.58 3394.95 1498.92 3328.8 1536.72C3285.49 1561.91 3231.95 1574.51 3170.53 1574.51C3107.53 1574.51 3051.62 1561.91 3004.38 1536.72C2992.57 1530.42 2983.12 1524.12 2975.24 1517.03C2948.47 1492.62 2951.62 1465.06 2953.98 1454.03C2960.28 1431.2 2980.75 1408.36 3015.4 1408.36C3031.94 1408.36 3050.84 1413.09 3071.31 1423.32C3098.87 1437.5 3132.73 1444.58 3170.53 1444.58C3206.75 1444.58 3236.67 1438.29 3257.93 1425.69C3275.26 1415.45 3275.26 1409.15 3275.26 1406C3275.26 1399.7 3274.47 1394.98 3263.44 1387.1C3253.21 1380.8 3224.86 1366.63 3153.99 1350.09C3086.27 1335.92 3036.66 1318.59 3002.8 1297.33C2957.92 1270.56 2932.72 1226.46 2932.72 1173.71C2932.72 1136.7 2946.11 1083.94 3010.68 1046.14ZM3541.27 1046.14C3583.8 1021.73 3636.55 1009.92 3697.98 1009.92C3762.55 1009.92 3816.88 1024.88 3859.4 1056.38C3871.21 1064.25 3879.87 1072.13 3886.17 1080.79C3905.86 1105.99 3901.92 1129.61 3898.77 1141.42C3890.11 1166.62 3867.27 1183.16 3838.93 1183.16C3820.03 1183.16 3800.34 1176.07 3779.08 1161.11C3760.18 1146.93 3732.62 1139.06 3697.98 1139.06C3660.97 1139.06 3631.83 1145.36 3612.93 1157.17C3605.06 1161.89 3597.18 1168.98 3597.18 1172.92C3597.18 1176.07 3597.18 1180.79 3608.21 1188.67C3617.66 1195.75 3643.64 1209.14 3714.51 1224.1C3780.66 1238.28 3831.05 1255.6 3867.27 1278.44C3914.52 1307.57 3939.72 1351.67 3939.72 1406C3939.72 1444.58 3925.54 1498.92 3859.4 1536.72C3816.09 1561.91 3762.55 1574.51 3701.12 1574.51C3638.13 1574.51 3582.22 1561.91 3534.98 1536.72C3523.16 1530.42 3513.71 1524.12 3505.84 1517.03C3479.07 1492.62 3482.22 1465.06 3484.58 1454.03C3490.88 1431.2 3511.35 1408.36 3546 1408.36C3562.54 1408.36 3581.43 1413.09 3601.91 1423.32C3629.47 1437.5 3663.33 1444.58 3701.12 1444.58C3737.35 1444.58 3767.27 1438.29 3788.53 1425.69C3805.85 1415.45 3805.85 1409.15 3805.85 1406C3805.85 1399.7 3805.07 1394.98 3794.04 1387.1C3783.81 1380.8 3755.46 1366.63 3684.59 1350.09C3616.87 1335.92 3567.26 1318.59 3533.4 1297.33C3488.52 1270.56 3463.32 1226.46 3463.32 1173.71C3463.32 1136.7 3476.71 1083.94 3541.27 1046.14Z" fill="#00789B"/>
<path d="M873.88 1692.84C877.24 1692.84 880.44 1694.28 882.68 1696.84L932.76 1756.2V1704.36C932.76 1697.96 937.88 1692.84 944.28 1692.84H948.28C954.68 1692.84 959.8 1697.96 959.8 1704.36V1793.48C959.8 1799.88 954.68 1805 948.28 1805H944.28C940.92 1805 937.72 1803.56 935.48 1800.84L885.4 1741.48V1793.48C885.4 1799.88 880.28 1805 873.88 1805H869.72C863.32 1805 858.2 1799.88 858.2 1793.48V1704.36C858.2 1697.96 863.32 1692.84 869.72 1692.84H873.88ZM1041.9 1699.56L1082.54 1788.2C1083.34 1789.8 1083.82 1791.56 1083.82 1793.48C1083.82 1799.88 1078.7 1805 1072.3 1805H1067.82C1063.34 1805 1059.18 1802.44 1057.42 1798.28L1048.3 1778.44H1009.74L1000.62 1798.28C998.859 1802.28 994.699 1805 990.219 1805H985.739C981.899 1805 978.219 1803.08 975.979 1799.72C973.899 1796.36 973.579 1792.2 975.339 1788.68L1015.98 1699.56C1017.9 1695.4 1022.06 1692.84 1026.54 1692.84H1031.5C1035.98 1692.84 1040.14 1695.4 1041.9 1699.56ZM1021.74 1752.04H1036.3L1028.94 1736.04L1021.74 1752.04ZM1179.48 1692.84C1183.48 1692.84 1187.16 1694.76 1189.24 1698.12C1191.32 1701.32 1191.64 1705.48 1190.04 1709.16L1149.24 1798.28C1147.48 1802.44 1143.32 1805 1138.84 1805H1133.88C1129.4 1805 1125.24 1802.44 1123.32 1798.28L1082.68 1709.16C1080.92 1705.48 1081.24 1701.32 1083.32 1698.12C1085.56 1694.76 1089.24 1692.84 1093.08 1692.84H1097.56C1102.04 1692.84 1106.2 1695.4 1107.96 1699.56L1136.28 1761.64L1164.6 1699.56C1166.52 1695.4 1170.68 1692.84 1175.16 1692.84H1179.48ZM1217.22 1805C1210.82 1805 1205.7 1799.88 1205.7 1793.48V1704.36C1205.7 1697.96 1210.82 1692.84 1217.22 1692.84H1221.22C1227.62 1692.84 1232.9 1697.96 1232.9 1704.36V1793.48C1232.9 1799.88 1227.62 1805 1221.22 1805H1217.22ZM1265.39 1790.92C1255.15 1781.48 1250.03 1769.16 1250.03 1754.28V1739.72C1250.03 1725.16 1254.99 1713.16 1265.07 1703.88C1274.67 1694.76 1287.31 1690.28 1302.35 1690.28C1316.27 1690.28 1327.79 1693.32 1336.59 1699.72C1345.55 1706.28 1345.87 1712.68 1344.43 1717C1342.83 1722.12 1338.03 1725.48 1332.59 1725.48C1328.75 1725.48 1324.59 1723.88 1320.43 1720.84C1316.75 1717.96 1310.51 1716.52 1302.35 1716.52C1294.35 1716.52 1288.27 1718.76 1283.63 1723.08C1279.15 1727.24 1277.23 1732.52 1277.23 1739.56V1754.28C1277.23 1761.8 1279.31 1767.24 1283.95 1771.88C1288.75 1776.36 1295.15 1778.6 1303.63 1778.6C1310.35 1778.6 1316.27 1777.8 1321.23 1776.36C1322.83 1775.72 1324.27 1775.24 1325.23 1774.76V1755.08C1325.23 1751.72 1326.83 1748.52 1329.39 1746.28L1333.39 1742.92C1336.91 1740.04 1341.71 1739.4 1345.71 1741.32C1349.71 1743.24 1352.43 1747.24 1352.43 1751.72V1782.6C1352.43 1785.48 1351.31 1788.2 1349.55 1790.28C1345.87 1794.44 1340.11 1797.8 1331.47 1800.84C1323.79 1803.56 1314.35 1805 1303.63 1805C1288.11 1805 1275.31 1800.36 1265.39 1790.92ZM1429.71 1699.56L1470.35 1788.2C1471.15 1789.8 1471.63 1791.56 1471.63 1793.48C1471.63 1799.88 1466.51 1805 1460.11 1805H1455.63C1451.15 1805 1446.99 1802.44 1445.23 1798.28L1436.11 1778.44H1397.55L1388.43 1798.28C1386.67 1802.28 1382.51 1805 1378.03 1805H1373.55C1369.71 1805 1366.03 1803.08 1363.79 1799.72C1361.71 1796.36 1361.39 1792.2 1363.15 1788.68L1403.79 1699.56C1405.71 1695.4 1409.87 1692.84 1414.35 1692.84H1419.31C1423.79 1692.84 1427.95 1695.4 1429.71 1699.56ZM1409.55 1752.04H1424.11L1416.75 1736.04L1409.55 1752.04ZM1466.08 1704.36C1466.08 1697.96 1471.2 1692.84 1477.6 1692.84H1561.12C1567.52 1692.84 1572.64 1697.96 1572.64 1704.36V1707.56C1572.64 1713.96 1567.52 1719.08 1561.12 1719.08H1532.96V1793.48C1532.96 1799.88 1527.68 1805 1521.44 1805H1517.28C1510.88 1805 1505.76 1799.88 1505.76 1793.48V1719.08H1477.6C1471.2 1719.08 1466.08 1713.96 1466.08 1707.56V1704.36ZM1598 1805C1591.6 1805 1586.48 1799.88 1586.48 1793.48V1704.36C1586.48 1697.96 1591.6 1692.84 1598 1692.84H1602C1608.4 1692.84 1613.68 1697.96 1613.68 1704.36V1793.48C1613.68 1799.88 1608.4 1805 1602 1805H1598ZM1650.45 1692.84C1653.81 1692.84 1657.01 1694.28 1659.25 1696.84L1709.33 1756.2V1704.36C1709.33 1697.96 1714.45 1692.84 1720.85 1692.84H1724.85C1731.25 1692.84 1736.37 1697.96 1736.37 1704.36V1793.48C1736.37 1799.88 1731.25 1805 1724.85 1805H1720.85C1717.49 1805 1714.29 1803.56 1712.05 1800.84L1661.97 1741.48V1793.48C1661.97 1799.88 1656.85 1805 1650.45 1805H1646.29C1639.89 1805 1634.77 1799.88 1634.77 1793.48V1704.36C1634.77 1697.96 1639.89 1692.84 1646.29 1692.84H1650.45ZM1769.46 1790.92C1759.22 1781.48 1754.1 1769.16 1754.1 1754.28V1739.72C1754.1 1725.16 1759.06 1713.16 1769.14 1703.88C1778.74 1694.76 1791.38 1690.28 1806.42 1690.28C1820.34 1690.28 1831.86 1693.32 1840.66 1699.72C1849.62 1706.28 1849.94 1712.68 1848.5 1717C1846.9 1722.12 1842.1 1725.48 1836.66 1725.48C1832.82 1725.48 1828.66 1723.88 1824.5 1720.84C1820.82 1717.96 1814.58 1716.52 1806.42 1716.52C1798.42 1716.52 1792.34 1718.76 1787.7 1723.08C1783.22 1727.24 1781.3 1732.52 1781.3 1739.56V1754.28C1781.3 1761.8 1783.38 1767.24 1788.02 1771.88C1792.82 1776.36 1799.22 1778.6 1807.7 1778.6C1814.42 1778.6 1820.34 1777.8 1825.3 1776.36C1826.9 1775.72 1828.34 1775.24 1829.3 1774.76V1755.08C1829.3 1751.72 1830.9 1748.52 1833.46 1746.28L1837.46 1742.92C1840.98 1740.04 1845.78 1739.4 1849.78 1741.32C1853.78 1743.24 1856.5 1747.24 1856.5 1751.72V1782.6C1856.5 1785.48 1855.38 1788.2 1853.62 1790.28C1849.94 1794.44 1844.18 1797.8 1835.54 1800.84C1827.86 1803.56 1818.42 1805 1807.7 1805C1792.18 1805 1779.38 1800.36 1769.46 1790.92ZM1982.48 1805C1976.08 1805 1970.96 1799.88 1970.96 1793.48V1763.4L1932.24 1711.24C1929.68 1707.72 1929.2 1703.08 1931.28 1699.08C1933.2 1695.24 1937.2 1692.84 1941.52 1692.84H1946.48C1950.16 1692.84 1953.68 1694.6 1955.76 1697.48L1984.56 1737L2013.36 1697.48C2015.6 1694.6 2018.96 1692.84 2022.64 1692.84H2027.6C2031.92 1692.84 2035.92 1695.24 2038 1699.08C2039.92 1703.08 2039.44 1707.72 2036.88 1711.24L1998.16 1763.4V1793.48C1998.16 1799.88 1993.04 1805 1986.64 1805H1982.48ZM2063.03 1705.32C2072.47 1696.2 2085.27 1691.56 2101.27 1691.56C2117.11 1691.56 2129.91 1696.2 2139.35 1705.32C2149.11 1714.6 2153.91 1727.08 2153.91 1742.28V1755.56C2153.91 1770.76 2149.11 1783.24 2139.51 1792.52C2130.07 1801.64 2117.27 1806.28 2101.43 1806.28C2085.59 1806.28 2072.63 1801.64 2063.19 1792.52C2053.59 1783.24 2048.63 1770.76 2048.63 1755.56V1742.28C2048.63 1727.08 2053.43 1714.6 2063.03 1705.32ZM2126.87 1755.56V1742.12C2126.87 1734.28 2124.79 1728.36 2120.63 1724.2C2116.31 1719.88 2110.07 1717.8 2101.27 1717.8C2092.47 1717.8 2086.23 1719.88 2082.07 1724.2C2077.91 1728.36 2075.83 1734.28 2075.83 1742.12V1755.56C2075.83 1763.4 2077.91 1769.32 2082.07 1773.64C2086.23 1777.8 2092.63 1779.88 2101.43 1779.88C2110.07 1779.88 2116.47 1777.8 2120.63 1773.64C2124.79 1769.48 2126.87 1763.56 2126.87 1755.56ZM2180.88 1796.04C2171.12 1788.68 2166 1777.8 2166 1764.52V1704.2C2166 1697.8 2171.12 1692.68 2177.52 1692.68H2181.52C2187.92 1692.68 2193.2 1697.8 2193.2 1704.2V1764.52C2193.2 1769.32 2194.48 1772.52 2197.84 1775.08C2202 1778.12 2207.6 1779.72 2214.8 1779.72C2222 1779.72 2227.6 1778.12 2231.76 1775.08C2235.12 1772.52 2236.56 1769.32 2236.56 1764.52V1704.2C2236.56 1697.8 2241.68 1692.68 2248.08 1692.68H2252.08C2258.48 1692.68 2263.6 1697.8 2263.6 1704.2V1764.52C2263.6 1777.96 2258.48 1788.84 2248.72 1796.04C2239.76 1802.76 2228.4 1806.12 2214.8 1806.12C2201.2 1806.12 2189.84 1802.76 2180.88 1796.04ZM2284.29 1702.12C2284.29 1695.88 2289.41 1690.6 2295.81 1690.6H2330.53C2344.45 1690.6 2355.17 1693.32 2363.49 1698.6C2372.93 1704.84 2377.89 1714.28 2377.89 1726.12C2377.89 1733.64 2375.01 1740.84 2369.73 1746.76V1746.92C2375.01 1752.52 2377.89 1760.04 2377.89 1768.52V1791.4C2377.89 1798.92 2371.97 1805 2364.29 1805C2356.77 1805 2350.85 1798.92 2350.85 1791.24V1768.68C2350.85 1766.44 2350.21 1765.32 2348.29 1764.2C2346.21 1762.76 2341.73 1761 2333.09 1761H2311.49V1791.4C2311.49 1797.64 2306.21 1802.92 2299.81 1802.92H2295.81C2289.41 1802.92 2284.29 1797.64 2284.29 1791.4V1702.12ZM2311.49 1734.6H2329.89C2341.09 1734.6 2345.89 1732.36 2347.65 1731.08C2350.85 1728.84 2350.85 1727.08 2350.85 1726.12C2350.85 1722.92 2349.73 1721.64 2347.97 1720.36C2346.05 1719.08 2341.25 1717 2330.53 1717H2311.49V1734.6ZM2467.38 1805C2461.14 1805 2455.86 1799.88 2455.86 1793.48V1704.36C2455.86 1697.96 2461.14 1692.84 2467.38 1692.84H2535.06C2541.46 1692.84 2546.58 1697.96 2546.58 1704.36V1707.56C2546.58 1713.96 2541.46 1719.08 2535.06 1719.08H2483.06V1734.6H2527.38C2533.78 1734.6 2538.9 1739.88 2538.9 1746.12V1749.64C2538.9 1756.04 2533.78 1761.16 2527.38 1761.16H2483.06V1793.48C2483.06 1799.88 2477.94 1805 2471.54 1805H2467.38ZM2573.07 1796.04C2563.31 1788.68 2558.19 1777.8 2558.19 1764.52V1704.2C2558.19 1697.8 2563.31 1692.68 2569.71 1692.68H2573.71C2580.11 1692.68 2585.39 1697.8 2585.39 1704.2V1764.52C2585.39 1769.32 2586.67 1772.52 2590.03 1775.08C2594.19 1778.12 2599.79 1779.72 2606.99 1779.72C2614.19 1779.72 2619.79 1778.12 2623.95 1775.08C2627.31 1772.52 2628.75 1769.32 2628.75 1764.52V1704.2C2628.75 1697.8 2633.86 1692.68 2640.27 1692.68H2644.27C2650.67 1692.68 2655.79 1697.8 2655.79 1704.2V1764.52C2655.79 1777.96 2650.67 1788.84 2640.91 1796.04C2631.95 1802.76 2620.59 1806.12 2606.99 1806.12C2593.39 1806.12 2582.03 1802.76 2573.07 1796.04ZM2669.04 1704.36C2669.04 1697.96 2674.16 1692.84 2680.56 1692.84H2764.08C2770.48 1692.84 2775.6 1697.96 2775.6 1704.36V1707.56C2775.6 1713.96 2770.48 1719.08 2764.08 1719.08H2735.92V1793.48C2735.92 1799.88 2730.64 1805 2724.4 1805H2720.24C2713.84 1805 2708.72 1799.88 2708.72 1793.48V1719.08H2680.56C2674.16 1719.08 2669.04 1713.96 2669.04 1707.56V1704.36ZM2803.69 1796.04C2793.93 1788.68 2788.81 1777.8 2788.81 1764.52V1704.2C2788.81 1697.8 2793.93 1692.68 2800.33 1692.68H2804.33C2810.73 1692.68 2816.01 1697.8 2816.01 1704.2V1764.52C2816.01 1769.32 2817.29 1772.52 2820.65 1775.08C2824.81 1778.12 2830.41 1779.72 2837.61 1779.72C2844.81 1779.72 2850.41 1778.12 2854.57 1775.08C2857.93 1772.52 2859.37 1769.32 2859.37 1764.52V1704.2C2859.37 1697.8 2864.49 1692.68 2870.89 1692.68H2874.89C2881.29 1692.68 2886.41 1697.8 2886.41 1704.2V1764.52C2886.41 1777.96 2881.29 1788.84 2871.53 1796.04C2862.57 1802.76 2851.21 1806.12 2837.61 1806.12C2824.01 1806.12 2812.65 1802.76 2803.69 1796.04ZM2907.11 1702.12C2907.11 1695.88 2912.23 1690.6 2918.63 1690.6H2953.35C2967.27 1690.6 2977.99 1693.32 2986.31 1698.6C2995.75 1704.84 3000.71 1714.28 3000.71 1726.12C3000.71 1733.64 2997.83 1740.84 2992.55 1746.76V1746.92C2997.83 1752.52 3000.71 1760.04 3000.71 1768.52V1791.4C3000.71 1798.92 2994.79 1805 2987.11 1805C2979.59 1805 2973.67 1798.92 2973.67 1791.24V1768.68C2973.67 1766.44 2973.03 1765.32 2971.11 1764.2C2969.03 1762.76 2964.55 1761 2955.91 1761H2934.31V1791.4C2934.31 1797.64 2929.03 1802.92 2922.63 1802.92H2918.63C2912.23 1802.92 2907.11 1797.64 2907.11 1791.4V1702.12ZM2934.31 1734.6H2952.71C2963.91 1734.6 2968.71 1732.36 2970.47 1731.08C2973.67 1728.84 2973.67 1727.08 2973.67 1726.12C2973.67 1722.92 2972.55 1721.64 2970.79 1720.36C2968.87 1719.08 2964.07 1717 2953.35 1717H2934.31V1734.6ZM3032.54 1805C3026.14 1805 3021.02 1799.88 3021.02 1793.48V1704.36C3021.02 1697.96 3026.14 1692.84 3032.54 1692.84H3098.94C3105.34 1692.84 3110.46 1697.96 3110.46 1704.36V1707.56C3110.46 1713.96 3105.34 1719.08 3098.94 1719.08H3048.22V1733.8H3091.26C3097.66 1733.8 3102.78 1738.92 3102.78 1745.32V1748.68C3102.78 1755.08 3097.66 1760.2 3091.26 1760.2H3048.22V1778.6H3098.94C3105.34 1778.6 3110.46 1783.72 3110.46 1790.12V1793.48C3110.46 1799.88 3105.34 1805 3098.94 1805H3032.54Z" fill="#00789B"/>
</svg>
