<svg width="8959" height="1552" viewBox="0 0 8959 1552" fill="none" xmlns="http://www.w3.org/2000/svg">
<path d="M336.96 870.72C246.72 870.72 171.84 841.92 116.16 785.28C59.52 728.64 30.72 655.68 30.72 566.4V486.72C30.72 397.44 59.52 323.52 115.2 266.88C171.84 210.24 246.72 182.4 336.96 182.4C419.52 182.4 488.64 200.64 541.44 238.08C597.12 276.48 599.04 315.84 591.36 341.76C581.76 373.44 552 393.6 518.4 393.6C495.36 393.6 471.36 384.96 446.4 366.72C421.44 349.44 384.96 339.84 336.96 339.84C291.84 339.84 257.28 353.28 232.32 379.2C206.4 405.12 193.92 439.68 193.92 485.76V566.4C193.92 612.48 206.4 648 231.36 673.92C257.28 699.84 291.84 712.32 336.96 712.32C384.96 712.32 422.4 703.68 447.36 686.4C472.32 669.12 497.28 660.48 519.36 660.48C552.96 660.48 581.76 680.64 591.36 711.36C595.2 723.84 600.96 754.56 573.12 787.2C565.44 795.84 554.88 805.44 541.44 815.04C487.68 851.52 419.52 870.72 336.96 870.72ZM750.938 265.92C807.578 211.2 884.377 183.36 980.378 183.36C1075.42 183.36 1152.22 211.2 1208.86 265.92C1267.42 321.6 1296.22 396.48 1296.22 487.68V567.36C1296.22 658.56 1267.42 733.44 1209.82 789.12C1153.18 843.84 1076.38 871.68 981.338 871.68C886.298 871.68 808.538 843.84 751.898 789.12C694.297 733.44 664.538 658.56 664.538 567.36V487.68C664.538 396.48 693.338 321.6 750.938 265.92ZM1133.98 567.36V486.72C1133.98 439.68 1121.5 404.16 1096.54 379.2C1070.62 353.28 1033.18 340.8 980.378 340.8C927.578 340.8 890.138 353.28 865.178 379.2C840.218 404.16 827.738 439.68 827.738 486.72V567.36C827.738 614.4 840.218 649.92 865.178 675.84C890.138 700.8 928.538 713.28 981.338 713.28C1033.18 713.28 1071.58 700.8 1096.54 675.84C1121.5 650.88 1133.98 615.36 1133.98 567.36ZM1458.02 810.24C1399.46 766.08 1368.74 700.8 1368.74 621.12V259.2C1368.74 220.8 1399.46 190.08 1437.86 190.08H1461.86C1500.26 190.08 1531.94 220.8 1531.94 259.2V621.12C1531.94 649.92 1539.62 669.12 1559.78 684.48C1584.74 702.72 1618.34 712.32 1661.54 712.32C1704.74 712.32 1738.34 702.72 1763.3 684.48C1783.46 669.12 1792.1 649.92 1792.1 621.12V259.2C1792.1 220.8 1822.81 190.08 1861.22 190.08H1885.22C1923.62 190.08 1954.34 220.8 1954.34 259.2V621.12C1954.34 701.76 1923.62 767.04 1865.06 810.24C1811.3 850.56 1743.14 870.72 1661.54 870.72C1579.94 870.72 1511.78 850.56 1458.02 810.24ZM2078.51 246.72C2078.51 209.28 2109.23 177.6 2147.63 177.6H2355.95C2439.47 177.6 2503.79 193.92 2553.71 225.6C2610.35 263.04 2640.11 319.68 2640.11 390.72C2640.11 435.84 2622.83 479.04 2591.15 514.56V515.52C2622.83 549.12 2640.11 594.24 2640.11 645.12V782.4C2640.11 827.52 2604.59 864 2558.51 864C2513.39 864 2477.87 827.52 2477.87 781.44V646.08C2477.87 632.64 2474.03 625.92 2462.51 619.2C2450.03 610.56 2423.15 600 2371.31 600H2241.71V782.4C2241.71 819.84 2210.03 851.52 2171.63 851.52H2147.63C2109.23 851.52 2078.51 819.84 2078.51 782.4V246.72ZM2241.71 441.6H2352.11C2419.31 441.6 2448.11 428.16 2458.67 420.48C2477.87 407.04 2477.87 396.48 2477.87 390.72C2477.87 371.52 2471.15 363.84 2460.59 356.16C2449.07 348.48 2420.27 336 2355.95 336H2241.71V441.6ZM2806.09 226.56C2857.94 196.8 2922.26 182.4 2997.14 182.4C3075.86 182.4 3142.1 200.64 3193.94 239.04C3208.33 248.64 3218.9 258.24 3226.58 268.8C3250.58 299.52 3245.78 328.32 3241.94 342.72C3231.38 373.44 3203.54 393.6 3168.98 393.6C3145.94 393.6 3121.94 384.96 3096.02 366.72C3072.98 349.44 3039.38 339.84 2997.14 339.84C2952.02 339.84 2916.5 347.52 2893.46 361.92C2883.86 367.68 2874.26 376.32 2874.26 381.12C2874.26 384.96 2874.26 390.72 2887.7 400.32C2899.22 408.96 2930.9 425.28 3017.3 443.52C3097.94 460.8 3159.38 481.92 3203.54 509.76C3261.14 545.28 3291.86 599.04 3291.86 665.28C3291.86 712.32 3274.58 778.56 3193.94 824.64C3141.14 855.36 3075.86 870.72 3000.98 870.72C2924.18 870.72 2856.02 855.36 2798.42 824.64C2784.02 816.96 2772.5 809.28 2762.9 800.64C2730.26 770.88 2734.1 737.28 2736.98 723.84C2744.66 696 2769.62 668.16 2811.86 668.16C2832.02 668.16 2855.06 673.92 2880.02 686.4C2913.62 703.68 2954.9 712.32 3000.98 712.32C3045.14 712.32 3081.62 704.64 3107.54 689.28C3128.66 676.8 3128.66 669.12 3128.66 665.28C3128.66 657.6 3127.7 651.84 3114.26 642.24C3101.78 634.56 3067.22 617.28 2980.82 597.12C2898.26 579.84 2837.78 558.72 2796.5 532.8C2741.78 500.16 2711.05 446.4 2711.05 382.08C2711.05 336.96 2727.38 272.64 2806.09 226.56ZM3457.34 864C3418.94 864 3388.22 833.28 3388.22 794.88V260.16C3388.22 221.76 3418.94 191.04 3457.34 191.04H3855.74C3894.14 191.04 3924.86 221.76 3924.86 260.16V279.36C3924.86 317.76 3894.14 348.48 3855.74 348.48H3551.42V436.8H3809.66C3848.06 436.8 3878.78 467.52 3878.78 505.92V526.08C3878.78 564.48 3848.06 595.2 3809.66 595.2H3551.42V705.6H3855.74C3894.14 705.6 3924.86 736.32 3924.86 774.72V794.88C3924.86 833.28 3894.14 864 3855.74 864H3457.34Z" fill="#00789B"/>
<path d="M4463.96 870.72C4373.72 870.72 4298.84 841.92 4243.16 785.28C4186.52 728.64 4157.72 655.68 4157.72 566.4V486.72C4157.72 397.44 4186.52 323.52 4242.2 266.88C4298.84 210.24 4373.72 182.4 4463.96 182.4C4546.52 182.4 4615.64 200.64 4668.44 238.08C4724.12 276.48 4726.04 315.84 4718.36 341.76C4708.76 373.44 4679 393.6 4645.4 393.6C4622.36 393.6 4598.36 384.96 4573.4 366.72C4548.44 349.44 4511.96 339.84 4463.96 339.84C4418.84 339.84 4384.28 353.28 4359.32 379.2C4333.4 405.12 4320.92 439.68 4320.92 485.76V566.4C4320.92 612.48 4333.4 648 4358.36 673.92C4384.28 699.84 4418.84 712.32 4463.96 712.32C4511.96 712.32 4549.4 703.68 4574.36 686.4C4599.32 669.12 4624.28 660.48 4646.36 660.48C4679.96 660.48 4708.76 680.64 4718.36 711.36C4722.2 723.84 4727.96 754.56 4700.12 787.2C4692.44 795.84 4681.88 805.44 4668.44 815.04C4614.68 851.52 4546.52 870.72 4463.96 870.72ZM4876.98 265.92C4933.62 211.2 5010.42 183.36 5106.42 183.36C5201.46 183.36 5278.26 211.2 5334.9 265.92C5393.46 321.6 5422.26 396.48 5422.26 487.68V567.36C5422.26 658.56 5393.46 733.44 5335.86 789.12C5279.22 843.84 5202.42 871.68 5107.38 871.68C5012.34 871.68 4934.58 843.84 4877.94 789.12C4820.34 733.44 4790.58 658.56 4790.58 567.36V487.68C4790.58 396.48 4819.38 321.6 4876.98 265.92ZM5260.02 567.36V486.72C5260.02 439.68 5247.54 404.16 5222.58 379.2C5196.66 353.28 5159.22 340.8 5106.42 340.8C5053.62 340.8 5016.18 353.28 4991.22 379.2C4966.26 404.16 4953.78 439.68 4953.78 486.72V567.36C4953.78 614.4 4966.26 649.92 4991.22 675.84C5016.18 700.8 5054.58 713.28 5107.38 713.28C5159.22 713.28 5197.62 700.8 5222.58 675.84C5247.54 650.88 5260.02 615.36 5260.02 567.36ZM5598.7 864C5560.3 864 5529.58 833.28 5529.58 794.88V260.16C5529.58 221.76 5560.3 191.04 5598.7 191.04H5633.26C5659.18 191.04 5682.22 204.48 5694.7 227.52L5903.02 618.24L6111.34 227.52C6123.82 204.48 6146.86 191.04 6172.78 191.04H6208.3C6246.7 191.04 6277.42 221.76 6277.42 260.16V794.88C6277.42 833.28 6246.7 864 6208.3 864H6184.3C6145.9 864 6115.18 833.28 6115.18 794.88V564.48L5973.1 827.52C5961.58 849.6 5938.54 864 5912.62 864H5893.42C5867.5 864 5844.46 849.6 5831.98 827.52L5692.78 567.36V794.88C5692.78 833.28 5661.1 864 5622.7 864H5598.7ZM6475.26 191.04H6679.74C6763.26 191.04 6829.5 209.28 6878.46 246.72C6932.22 287.04 6960.06 344.64 6960.06 412.8C6960.06 480 6932.22 537.6 6878.46 578.88C6829.5 615.36 6763.26 634.56 6679.74 634.56H6569.34V794.88C6569.34 833.28 6537.66 864 6499.26 864H6475.26C6436.86 864 6406.14 833.28 6406.14 794.88V260.16C6406.14 221.76 6436.86 191.04 6475.26 191.04ZM6569.34 348.48V476.16H6679.74C6724.86 476.16 6758.46 468.48 6776.7 453.12C6794.94 438.72 6797.82 425.28 6797.82 412.8C6797.82 395.52 6792.06 383.04 6776.7 371.52C6764.22 360.96 6737.34 348.48 6679.74 348.48H6569.34ZM7399.56 231.36L7643.4 763.2C7648.2 772.8 7651.08 783.36 7651.08 794.88C7651.08 833.28 7620.36 864 7581.96 864H7555.08C7528.2 864 7503.24 848.64 7492.68 823.68L7437.96 704.64H7206.6L7151.88 823.68C7141.32 847.68 7116.36 864 7089.48 864H7062.6C7039.56 864 7017.48 852.48 7004.04 832.32C6991.56 812.16 6989.64 787.2 7000.2 766.08L7244.04 231.36C7255.56 206.4 7280.52 191.04 7307.4 191.04H7337.16C7364.04 191.04 7389 206.4 7399.56 231.36ZM7278.6 546.24H7365.96L7321.8 450.24L7278.6 546.24ZM7797.45 226.56C7849.29 196.8 7913.61 182.4 7988.49 182.4C8067.21 182.4 8133.45 200.64 8185.29 239.04C8199.69 248.64 8210.25 258.24 8217.93 268.8C8241.93 299.52 8237.13 328.32 8233.29 342.72C8222.73 373.44 8194.89 393.6 8160.33 393.6C8137.29 393.6 8113.29 384.96 8087.37 366.72C8064.33 349.44 8030.73 339.84 7988.49 339.84C7943.37 339.84 7907.85 347.52 7884.81 361.92C7875.21 367.68 7865.61 376.32 7865.61 381.12C7865.61 384.96 7865.61 390.72 7879.05 400.32C7890.57 408.96 7922.25 425.28 8008.65 443.52C8089.29 460.8 8150.73 481.92 8194.89 509.76C8252.49 545.28 8283.21 599.04 8283.21 665.28C8283.21 712.32 8265.93 778.56 8185.29 824.64C8132.49 855.36 8067.21 870.72 7992.33 870.72C7915.53 870.72 7847.37 855.36 7789.77 824.64C7775.37 816.96 7763.85 809.28 7754.25 800.64C7721.61 770.88 7725.45 737.28 7728.33 723.84C7736.01 696 7760.97 668.16 7803.21 668.16C7823.37 668.16 7846.41 673.92 7871.37 686.4C7904.97 703.68 7946.25 712.32 7992.33 712.32C8036.49 712.32 8072.97 704.64 8098.89 689.28C8120.01 676.8 8120.01 669.12 8120.01 665.28C8120.01 657.6 8119.05 651.84 8105.61 642.24C8093.13 634.56 8058.57 617.28 7972.17 597.12C7889.61 579.84 7829.13 558.72 7787.85 532.8C7733.13 500.16 7702.41 446.4 7702.41 382.08C7702.41 336.96 7718.73 272.64 7797.45 226.56ZM8444.32 226.56C8496.16 196.8 8560.48 182.4 8635.36 182.4C8714.08 182.4 8780.32 200.64 8832.16 239.04C8846.56 248.64 8857.12 258.24 8864.8 268.8C8888.8 299.52 8884 328.32 8880.16 342.72C8869.6 373.44 8841.76 393.6 8807.2 393.6C8784.16 393.6 8760.16 384.96 8734.24 366.72C8711.2 349.44 8677.6 339.84 8635.36 339.84C8590.24 339.84 8554.72 347.52 8531.68 361.92C8522.08 367.68 8512.48 376.32 8512.48 381.12C8512.48 384.96 8512.48 390.72 8525.92 400.32C8537.44 408.96 8569.12 425.28 8655.52 443.52C8736.16 460.8 8797.6 481.92 8841.76 509.76C8899.36 545.28 8930.08 599.04 8930.08 665.28C8930.08 712.32 8912.8 778.56 8832.16 824.64C8779.36 855.36 8714.08 870.72 8639.2 870.72C8562.4 870.72 8494.24 855.36 8436.64 824.64C8422.24 816.96 8410.72 809.28 8401.12 800.64C8368.48 770.88 8372.32 737.28 8375.2 723.84C8382.88 696 8407.84 668.16 8450.08 668.16C8470.24 668.16 8493.28 673.92 8518.24 686.4C8551.84 703.68 8593.12 712.32 8639.2 712.32C8683.36 712.32 8719.84 704.64 8745.76 689.28C8766.88 676.8 8766.88 669.12 8766.88 665.28C8766.88 657.6 8765.92 651.84 8752.48 642.24C8740 634.56 8705.44 617.28 8619.04 597.12C8536.48 579.84 8476 558.72 8434.72 532.8C8380 500.16 8349.28 446.4 8349.28 382.08C8349.28 336.96 8365.6 272.64 8444.32 226.56Z" fill="#00789B"/>
<path d="M1420.64 1071.52C1430.72 1071.52 1440.32 1075.84 1447.04 1083.52L1597.28 1261.6V1106.08C1597.28 1086.88 1612.64 1071.52 1631.84 1071.52H1643.84C1663.04 1071.52 1678.4 1086.88 1678.4 1106.08V1373.44C1678.4 1392.64 1663.04 1408 1643.84 1408H1631.84C1621.76 1408 1612.16 1403.68 1605.44 1395.52L1455.2 1217.44V1373.44C1455.2 1392.64 1439.84 1408 1420.64 1408H1408.16C1388.96 1408 1373.6 1392.64 1373.6 1373.44V1106.08C1373.6 1086.88 1388.96 1071.52 1408.16 1071.52H1420.64ZM1924.7 1091.68L2046.62 1357.6C2049.02 1362.4 2050.46 1367.68 2050.46 1373.44C2050.46 1392.64 2035.1 1408 2015.9 1408H2002.46C1989.02 1408 1976.54 1400.32 1971.26 1387.84L1943.9 1328.32H1828.22L1800.86 1387.84C1795.58 1399.84 1783.1 1408 1769.66 1408H1756.22C1744.7 1408 1733.66 1402.24 1726.94 1392.16C1720.7 1382.08 1719.74 1369.6 1725.02 1359.04L1846.94 1091.68C1852.7 1079.2 1865.18 1071.52 1878.62 1071.52H1893.5C1906.94 1071.52 1919.42 1079.2 1924.7 1091.68ZM1864.22 1249.12H1907.9L1885.82 1201.12L1864.22 1249.12ZM2337.45 1071.52C2349.45 1071.52 2360.49 1077.28 2366.73 1087.36C2372.97 1096.96 2373.93 1109.44 2369.13 1120.48L2246.73 1387.84C2241.45 1400.32 2228.97 1408 2215.53 1408H2200.65C2187.21 1408 2174.73 1400.32 2168.97 1387.84L2047.05 1120.48C2041.77 1109.44 2042.73 1096.96 2048.97 1087.36C2055.69 1077.28 2066.73 1071.52 2078.25 1071.52H2091.69C2105.13 1071.52 2117.61 1079.2 2122.89 1091.68L2207.85 1277.92L2292.81 1091.68C2298.57 1079.2 2311.05 1071.52 2324.49 1071.52H2337.45ZM2450.66 1408C2431.46 1408 2416.1 1392.64 2416.1 1373.44V1106.08C2416.1 1086.88 2431.46 1071.52 2450.66 1071.52H2462.66C2481.86 1071.52 2497.7 1086.88 2497.7 1106.08V1373.44C2497.7 1392.64 2481.86 1408 2462.66 1408H2450.66ZM2595.18 1365.76C2564.46 1337.44 2549.1 1300.48 2549.1 1255.84V1212.16C2549.1 1168.48 2563.98 1132.48 2594.22 1104.64C2623.02 1077.28 2660.94 1063.84 2706.06 1063.84C2747.82 1063.84 2782.38 1072.96 2808.78 1092.16C2835.66 1111.84 2836.62 1131.04 2832.3 1144C2827.5 1159.36 2813.1 1169.44 2796.78 1169.44C2785.26 1169.44 2772.78 1164.64 2760.3 1155.52C2749.26 1146.88 2730.54 1142.56 2706.06 1142.56C2682.06 1142.56 2663.82 1149.28 2649.9 1162.24C2636.46 1174.72 2630.7 1190.56 2630.7 1211.68V1255.84C2630.7 1278.4 2636.94 1294.72 2650.86 1308.64C2665.26 1322.08 2684.46 1328.8 2709.9 1328.8C2730.06 1328.8 2747.82 1326.4 2762.7 1322.08C2767.5 1320.16 2771.82 1318.72 2774.7 1317.28V1258.24C2774.7 1248.16 2779.5 1238.56 2787.18 1231.84L2799.18 1221.76C2809.74 1213.12 2824.14 1211.2 2836.14 1216.96C2848.14 1222.72 2856.3 1234.72 2856.3 1248.16V1340.8C2856.3 1349.44 2852.94 1357.6 2847.66 1363.84C2836.62 1376.32 2819.34 1386.4 2793.42 1395.52C2770.38 1403.68 2742.06 1408 2709.9 1408C2663.34 1408 2624.94 1394.08 2595.18 1365.76ZM3088.13 1091.68L3210.05 1357.6C3212.45 1362.4 3213.89 1367.68 3213.89 1373.44C3213.89 1392.64 3198.53 1408 3179.33 1408H3165.89C3152.45 1408 3139.97 1400.32 3134.69 1387.84L3107.33 1328.32H2991.65L2964.29 1387.84C2959.01 1399.84 2946.53 1408 2933.09 1408H2919.65C2908.13 1408 2897.09 1402.24 2890.37 1392.16C2884.13 1382.08 2883.17 1369.6 2888.45 1359.04L3010.37 1091.68C3016.13 1079.2 3028.61 1071.52 3042.05 1071.52H3056.93C3070.37 1071.52 3082.85 1079.2 3088.13 1091.68ZM3027.65 1249.12H3071.33L3049.25 1201.12L3027.65 1249.12ZM3197.23 1106.08C3197.23 1086.88 3212.59 1071.52 3231.79 1071.52H3482.35C3501.55 1071.52 3516.91 1086.88 3516.91 1106.08V1115.68C3516.91 1134.88 3501.55 1150.24 3482.35 1150.24H3397.87V1373.44C3397.87 1392.64 3382.03 1408 3363.31 1408H3350.83C3331.63 1408 3316.27 1392.64 3316.27 1373.44V1150.24H3231.79C3212.59 1150.24 3197.23 1134.88 3197.23 1115.68V1106.08ZM3593 1408C3573.8 1408 3558.44 1392.64 3558.44 1373.44V1106.08C3558.44 1086.88 3573.8 1071.52 3593 1071.52H3605C3624.2 1071.52 3640.04 1086.88 3640.04 1106.08V1373.44C3640.04 1392.64 3624.2 1408 3605 1408H3593ZM3750.34 1071.52C3760.42 1071.52 3770.02 1075.84 3776.74 1083.52L3926.98 1261.6V1106.08C3926.98 1086.88 3942.34 1071.52 3961.54 1071.52H3973.54C3992.74 1071.52 4008.1 1086.88 4008.1 1106.08V1373.44C4008.1 1392.64 3992.74 1408 3973.54 1408H3961.54C3951.46 1408 3941.86 1403.68 3935.14 1395.52L3784.9 1217.44V1373.44C3784.9 1392.64 3769.54 1408 3750.34 1408H3737.86C3718.66 1408 3703.3 1392.64 3703.3 1373.44V1106.08C3703.3 1086.88 3718.66 1071.52 3737.86 1071.52H3750.34ZM4107.37 1365.76C4076.65 1337.44 4061.29 1300.48 4061.29 1255.84V1212.16C4061.29 1168.48 4076.17 1132.48 4106.41 1104.64C4135.21 1077.28 4173.13 1063.84 4218.25 1063.84C4260.01 1063.84 4294.57 1072.96 4320.97 1092.16C4347.85 1111.84 4348.81 1131.04 4344.49 1144C4339.69 1159.36 4325.29 1169.44 4308.97 1169.44C4297.45 1169.44 4284.97 1164.64 4272.49 1155.52C4261.45 1146.88 4242.73 1142.56 4218.25 1142.56C4194.25 1142.56 4176.01 1149.28 4162.09 1162.24C4148.65 1174.72 4142.89 1190.56 4142.89 1211.68V1255.84C4142.89 1278.4 4149.13 1294.72 4163.05 1308.64C4177.45 1322.08 4196.65 1328.8 4222.09 1328.8C4242.25 1328.8 4260.01 1326.4 4274.89 1322.08C4279.69 1320.16 4284.01 1318.72 4286.89 1317.28V1258.24C4286.89 1248.16 4291.69 1238.56 4299.37 1231.84L4311.37 1221.76C4321.93 1213.12 4336.33 1211.2 4348.33 1216.96C4360.33 1222.72 4368.49 1234.72 4368.49 1248.16V1340.8C4368.49 1349.44 4365.13 1357.6 4359.85 1363.84C4348.81 1376.32 4331.53 1386.4 4305.61 1395.52C4282.57 1403.68 4254.25 1408 4222.09 1408C4175.53 1408 4137.13 1394.08 4107.37 1365.76ZM4746.43 1408C4727.23 1408 4711.87 1392.64 4711.87 1373.44V1283.2L4595.71 1126.72C4588.03 1116.16 4586.59 1102.24 4592.83 1090.24C4598.59 1078.72 4610.59 1071.52 4623.55 1071.52H4638.43C4649.47 1071.52 4660.03 1076.8 4666.27 1085.44L4752.67 1204L4839.07 1085.44C4845.79 1076.8 4855.87 1071.52 4866.91 1071.52H4881.79C4894.75 1071.52 4906.75 1078.72 4912.99 1090.24C4918.75 1102.24 4917.31 1116.16 4909.63 1126.72L4793.47 1283.2V1373.44C4793.47 1392.64 4778.11 1408 4758.91 1408H4746.43ZM4988.09 1108.96C5016.41 1081.6 5054.81 1067.68 5102.81 1067.68C5150.33 1067.68 5188.73 1081.6 5217.05 1108.96C5246.33 1136.8 5260.73 1174.24 5260.73 1219.84V1259.68C5260.73 1305.28 5246.33 1342.72 5217.53 1370.56C5189.21 1397.92 5150.81 1411.84 5103.29 1411.84C5055.77 1411.84 5016.89 1397.92 4988.57 1370.56C4959.77 1342.72 4944.89 1305.28 4944.89 1259.68V1219.84C4944.89 1174.24 4959.29 1136.8 4988.09 1108.96ZM5179.61 1259.68V1219.36C5179.61 1195.84 5173.37 1178.08 5160.89 1165.6C5147.93 1152.64 5129.21 1146.4 5102.81 1146.4C5076.41 1146.4 5057.69 1152.64 5045.21 1165.6C5032.73 1178.08 5026.49 1195.84 5026.49 1219.36V1259.68C5026.49 1283.2 5032.73 1300.96 5045.21 1313.92C5057.69 1326.4 5076.89 1332.64 5103.29 1332.64C5129.21 1332.64 5148.41 1326.4 5160.89 1313.92C5173.37 1301.44 5179.61 1283.68 5179.61 1259.68ZM5341.63 1381.12C5312.35 1359.04 5296.99 1326.4 5296.99 1286.56V1105.6C5296.99 1086.4 5312.35 1071.04 5331.55 1071.04H5343.55C5362.75 1071.04 5378.59 1086.4 5378.59 1105.6V1286.56C5378.59 1300.96 5382.43 1310.56 5392.51 1318.24C5404.99 1327.36 5421.79 1332.16 5443.39 1332.16C5464.99 1332.16 5481.79 1327.36 5494.27 1318.24C5504.35 1310.56 5508.67 1300.96 5508.67 1286.56V1105.6C5508.67 1086.4 5524.03 1071.04 5543.23 1071.04H5555.23C5574.43 1071.04 5589.79 1086.4 5589.79 1105.6V1286.56C5589.79 1326.88 5574.43 1359.52 5545.15 1381.12C5518.27 1401.28 5484.19 1411.36 5443.39 1411.36C5402.59 1411.36 5368.51 1401.28 5341.63 1381.12ZM5651.88 1099.36C5651.88 1080.64 5667.24 1064.8 5686.44 1064.8H5790.6C5832.36 1064.8 5864.52 1072.96 5889.48 1088.8C5917.8 1107.52 5932.68 1135.84 5932.68 1171.36C5932.68 1193.92 5924.04 1215.52 5908.2 1233.28V1233.76C5924.04 1250.56 5932.68 1273.12 5932.68 1298.56V1367.2C5932.68 1389.76 5914.92 1408 5891.88 1408C5869.32 1408 5851.56 1389.76 5851.56 1366.72V1299.04C5851.56 1292.32 5849.64 1288.96 5843.88 1285.6C5837.64 1281.28 5824.2 1276 5798.28 1276H5733.48V1367.2C5733.48 1385.92 5717.64 1401.76 5698.44 1401.76H5686.44C5667.24 1401.76 5651.88 1385.92 5651.88 1367.2V1099.36ZM5733.48 1196.8H5788.68C5822.28 1196.8 5836.68 1190.08 5841.96 1186.24C5851.56 1179.52 5851.56 1174.24 5851.56 1171.36C5851.56 1161.76 5848.2 1157.92 5842.92 1154.08C5837.16 1150.24 5822.76 1144 5790.6 1144H5733.48V1196.8ZM6201.14 1408C6182.42 1408 6166.58 1392.64 6166.58 1373.44V1106.08C6166.58 1086.88 6182.42 1071.52 6201.14 1071.52H6404.18C6423.38 1071.52 6438.74 1086.88 6438.74 1106.08V1115.68C6438.74 1134.88 6423.38 1150.24 6404.18 1150.24H6248.18V1196.8H6381.14C6400.34 1196.8 6415.7 1212.64 6415.7 1231.36V1241.92C6415.7 1261.12 6400.34 1276.48 6381.14 1276.48H6248.18V1373.44C6248.18 1392.64 6232.82 1408 6213.62 1408H6201.14ZM6518.2 1381.12C6488.92 1359.04 6473.56 1326.4 6473.56 1286.56V1105.6C6473.56 1086.4 6488.92 1071.04 6508.12 1071.04H6520.12C6539.32 1071.04 6555.16 1086.4 6555.16 1105.6V1286.56C6555.16 1300.96 6559 1310.56 6569.08 1318.24C6581.56 1327.36 6598.36 1332.16 6619.96 1332.16C6641.56 1332.16 6658.36 1327.36 6670.84 1318.24C6680.92 1310.56 6685.24 1300.96 6685.24 1286.56V1105.6C6685.24 1086.4 6700.59 1071.04 6719.8 1071.04H6731.8C6751 1071.04 6766.36 1086.4 6766.36 1105.6V1286.56C6766.36 1326.88 6751 1359.52 6721.72 1381.12C6694.84 1401.28 6660.76 1411.36 6619.96 1411.36C6579.16 1411.36 6545.08 1401.28 6518.2 1381.12ZM6806.13 1106.08C6806.13 1086.88 6821.49 1071.52 6840.69 1071.52H7091.25C7110.45 1071.52 7125.81 1086.88 7125.81 1106.08V1115.68C7125.81 1134.88 7110.45 1150.24 7091.25 1150.24H7006.77V1373.44C7006.77 1392.64 6990.93 1408 6972.21 1408H6959.73C6940.53 1408 6925.17 1392.64 6925.17 1373.44V1150.24H6840.69C6821.49 1150.24 6806.13 1134.88 6806.13 1115.68V1106.08ZM7210.07 1381.12C7180.79 1359.04 7165.43 1326.4 7165.43 1286.56V1105.6C7165.43 1086.4 7180.79 1071.04 7199.99 1071.04H7211.99C7231.19 1071.04 7247.03 1086.4 7247.03 1105.6V1286.56C7247.03 1300.96 7250.87 1310.56 7260.95 1318.24C7273.43 1327.36 7290.23 1332.16 7311.83 1332.16C7333.43 1332.16 7350.23 1327.36 7362.71 1318.24C7372.79 1310.56 7377.11 1300.96 7377.11 1286.56V1105.6C7377.11 1086.4 7392.47 1071.04 7411.67 1071.04H7423.67C7442.87 1071.04 7458.23 1086.4 7458.23 1105.6V1286.56C7458.23 1326.88 7442.87 1359.52 7413.59 1381.12C7386.71 1401.28 7352.63 1411.36 7311.83 1411.36C7271.03 1411.36 7236.95 1401.28 7210.07 1381.12ZM7520.32 1099.36C7520.32 1080.64 7535.68 1064.8 7554.88 1064.8H7659.04C7700.8 1064.8 7732.96 1072.96 7757.92 1088.8C7786.24 1107.52 7801.12 1135.84 7801.12 1171.36C7801.12 1193.92 7792.48 1215.52 7776.64 1233.28V1233.76C7792.48 1250.56 7801.12 1273.12 7801.12 1298.56V1367.2C7801.12 1389.76 7783.36 1408 7760.32 1408C7737.76 1408 7720 1389.76 7720 1366.72V1299.04C7720 1292.32 7718.08 1288.96 7712.32 1285.6C7706.08 1281.28 7692.64 1276 7666.72 1276H7601.92V1367.2C7601.92 1385.92 7586.08 1401.76 7566.88 1401.76H7554.88C7535.68 1401.76 7520.32 1385.92 7520.32 1367.2V1099.36ZM7601.92 1196.8H7657.12C7690.72 1196.8 7705.12 1190.08 7710.4 1186.24C7720 1179.52 7720 1174.24 7720 1171.36C7720 1161.76 7716.64 1157.92 7711.36 1154.08C7705.6 1150.24 7691.2 1144 7659.04 1144H7601.92V1196.8ZM7896.61 1408C7877.41 1408 7862.05 1392.64 7862.05 1373.44V1106.08C7862.05 1086.88 7877.41 1071.52 7896.61 1071.52H8095.81C8115.01 1071.52 8130.37 1086.88 8130.37 1106.08V1115.68C8130.37 1134.88 8115.01 1150.24 8095.81 1150.24H7943.65V1194.4H8072.77C8091.97 1194.4 8107.33 1209.76 8107.33 1228.96V1239.04C8107.33 1258.24 8091.97 1273.6 8072.77 1273.6H7943.65V1328.8H8095.81C8115.01 1328.8 8130.37 1344.16 8130.37 1363.36V1373.44C8130.37 1392.64 8115.01 1408 8095.81 1408H7896.61Z" fill="#00789B"/>
</svg>
